<?xml version="1.0" encoding="UTF-8"?>
<svg width="45px" height="45px" viewBox="0 0 45 45" version="1.1" xmlns="http://www.w3.org/2000/svg" xmlns:xlink="http://www.w3.org/1999/xlink">
    <!-- Generator: Sketch 52.2 (67145) - http://www.bohemiancoding.com/sketch -->
    <title>TargetIcon</title>
    <desc>Created with Sketch.</desc>
    <defs>
        <linearGradient x1="100%" y1="0%" x2="37.1780269%" y2="100%" id="linearGradient-1">
            <stop stop-color="#8CA8F2" offset="0%"></stop>
            <stop stop-color="#7296F6" offset="100%"></stop>
        </linearGradient>
    </defs>
    <g id="Symbols" stroke="none" stroke-width="1" fill="none" fill-rule="evenodd">
        <g id="TargetIcon" transform="translate(0.189793, 0.000000)" fill="url(#linearGradient-1)">
            <g>
                <path d="M22.72,0.4 C10.5697355,0.4 0.72,10.2497355 0.72,22.4 C0.72,34.5502645 10.5697355,44.4 22.72,44.4 C34.8702645,44.4 44.72,34.5502645 44.72,22.4 C44.72,10.2497355 34.8702645,0.4 22.72,0.4 L22.72,0.4 Z M22.72,41.4 C12.2265898,41.4 3.72,32.8934102 3.72,22.4 C3.72,11.9065898 12.2265898,3.4 22.72,3.4 C33.2134102,3.4 41.72,11.9065898 41.72,22.4 C41.72,32.8934102 33.2134102,41.4 22.72,41.4 Z" id="Shape"></path>
                <path d="M22.72,7.4 C14.4357288,7.4 7.72,14.1157288 7.72,22.4 C7.72,30.6842712 14.4357288,37.4 22.72,37.4 C31.0042712,37.4 37.72,30.6842712 37.72,22.4 C37.72,14.1157288 31.0042712,7.4 22.72,7.4 L22.72,7.4 Z M22.72,34.4 C16.092583,34.4 10.72,29.027417 10.72,22.4 C10.72,15.772583 16.092583,10.4 22.72,10.4 C29.347417,10.4 34.72,15.772583 34.72,22.4 C34.72,29.027417 29.347417,34.4 22.72,34.4 Z" id="Shape"></path>
                <path d="M22.72,14.4 C18.301722,14.4 14.72,17.981722 14.72,22.4 C14.72,26.818278 18.301722,30.4 22.72,30.4 C27.138278,30.4 30.72,26.818278 30.72,22.4 C30.72,17.981722 27.138278,14.4 22.72,14.4 Z M22.72,27.4 C19.9585763,27.4 17.72,25.1614237 17.72,22.4 C17.72,19.6385763 19.9585763,17.4 22.72,17.4 C25.4814237,17.4 27.72,19.6385763 27.72,22.4 C27.72,25.1614237 25.4814237,27.4 22.72,27.4 L22.72,27.4 Z" id="Shape"></path>
                <circle id="Oval" cx="22.72" cy="22.4" r="1.5"></circle>
            </g>
        </g>
    </g>
</svg>