<?xml version="1.0" encoding="UTF-8"?>
<svg width="40px" height="40px" viewBox="0 0 40 40" version="1.1" xmlns="http://www.w3.org/2000/svg" xmlns:xlink="http://www.w3.org/1999/xlink">
    <!-- Generator: Sketch 52.2 (67145) - http://www.bohemiancoding.com/sketch -->
    <title>OrganisedIcon</title>
    <desc>Created with Sketch.</desc>
    <defs>
        <linearGradient x1="100%" y1="0%" x2="37.1780269%" y2="100%" id="linearGradient-1">
            <stop stop-color="#8CA8F2" offset="0%"></stop>
            <stop stop-color="#7296F6" offset="100%"></stop>
        </linearGradient>
    </defs>
    <g id="Symbols" stroke="none" stroke-width="1" fill="none" fill-rule="evenodd">
        <g id="OrganisedIcon" transform="translate(0.189793, -1.000000)" fill="url(#linearGradient-1)">
            <g transform="translate(0.000000, 0.859881)">
                <path d="M14.4475831,0.4 L3.44758313,0.4 C1.79072888,0.4 0.447583125,1.74314575 0.447583125,3.4 L0.447583125,14.4 C0.447583125,16.0568542 1.79072888,17.4 3.44758313,17.4 L14.4475831,17.4 C16.1044374,17.4 17.4475831,16.0568542 17.4475831,14.4 L17.4475831,3.4 C17.4475831,1.74314575 16.1044374,0.4 14.4475831,0.4 Z M14.4475831,14.4 L3.44758313,14.4 L3.44758313,3.4 L14.4475831,3.4 L14.4475831,14.4 Z" id="Shape-Copy"></path>
                <path d="M36.4475831,0.4 L25.4475831,0.4 C23.7907289,0.4 22.4475831,1.74314575 22.4475831,3.4 L22.4475831,14.4 C22.4475831,16.0568542 23.7907289,17.4 25.4475831,17.4 L36.4475831,17.4 C38.1044374,17.4 39.4475831,16.0568542 39.4475831,14.4 L39.4475831,3.4 C39.4475831,1.74314575 38.1044374,0.4 36.4475831,0.4 Z M36.4475831,14.4 L25.4475831,14.4 L25.4475831,3.4 L36.4475831,3.4 L36.4475831,14.4 Z" id="Shape-Copy-2"></path>
                <path d="M14.4475831,22.4 L3.44758313,22.4 C1.79072888,22.4 0.447583125,23.7431458 0.447583125,25.4 L0.447583125,36.4 C0.447583125,38.0568542 1.79072888,39.4 3.44758313,39.4 L14.4475831,39.4 C16.1044374,39.4 17.4475831,38.0568542 17.4475831,36.4 L17.4475831,25.4 C17.4475831,23.7431458 16.1044374,22.4 14.4475831,22.4 Z M14.4475831,36.4 L3.44758313,36.4 L3.44758313,25.4 L14.4475831,25.4 L14.4475831,36.4 Z" id="Shape-Copy-3"></path>
                <path d="M36.4475831,22.4 L25.4475831,22.4 C23.7907289,22.4 22.4475831,23.7431458 22.4475831,25.4 L22.4475831,36.4 C22.4475831,38.0568542 23.7907289,39.4 25.4475831,39.4 L36.4475831,39.4 C38.1044374,39.4 39.4475831,38.0568542 39.4475831,36.4 L39.4475831,25.4 C39.4475831,23.7431458 38.1044374,22.4 36.4475831,22.4 Z M36.4475831,36.4 L25.4475831,36.4 L25.4475831,25.4 L36.4475831,25.4 L36.4475831,36.4 Z" id="Shape-Copy-4"></path>
            </g>
        </g>
    </g>
</svg>