<?xml version="1.0" standalone="no"?>
<!DOCTYPE svg PUBLIC "-//W3C//DTD SVG 20010904//EN"
 "http://www.w3.org/TR/2001/REC-SVG-20010904/DTD/svg10.dtd">
<svg version="1.0" xmlns="http://www.w3.org/2000/svg"
 width="260.000000pt" height="260.000000pt" viewBox="0 0 260.000000 260.000000"
 preserveAspectRatio="xMidYMid meet">
<metadata>
Created by potrace 1.11, written by Peter Selinger 2001-2013
</metadata>
<g transform="translate(0.000000,260.000000) scale(0.100000,-0.100000)"
fill="#000000" stroke="none">
<path d="M416 2554 c-178 -43 -328 -195 -371 -375 -22 -96 -22 -1672 0 -1768
43 -183 193 -333 376 -376 96 -22 1672 -22 1768 0 183 43 333 193 376 376 22
96 22 1672 0 1768 -43 183 -193 333 -376 376 -92 21 -1683 21 -1773 -1z m1584
-504 l0 -110 -125 0 -125 0 0 110 0 110 125 0 125 0 0 -110z m-850 -322 c59
-29 83 -47 118 -92 l22 -29 0 72 0 71 110 0 110 0 0 -455 0 -455 -110 0 -110
0 0 66 0 66 -41 -42 c-152 -156 -447 -124 -575 62 -57 84 -79 167 -79 298 1
118 13 176 57 263 42 84 136 162 231 193 69 23 200 13 267 -18z m838 -515 c-3
-534 -3 -538 -26 -595 -31 -76 -103 -142 -180 -164 -56 -16 -214 -16 -241 0
-7 4 -11 40 -11 92 l0 85 63 -6 c50 -5 69 -3 97 13 71 38 70 27 70 600 l0 512
116 0 115 0 -3 -537z"/>
<path d="M955 1563 c-79 -41 -123 -121 -132 -237 -10 -130 28 -234 104 -286
38 -26 131 -38 199 -26 52 10 119 76 141 139 24 70 24 213 0 283 -19 55 -74
116 -120 133 -43 16 -157 13 -192 -6z"/>
</g>
</svg>
